<svg width="24" height="25" viewBox="0 0 24 25" fill="none" xmlns="http://www.w3.org/2000/svg">
<path d="M18 8.14413C18 6.55284 17.3679 5.02671 16.2426 3.90149C15.1174 2.77628 13.5913 2.14413 12 2.14413C10.4087 2.14413 8.88258 2.77628 7.75736 3.90149C6.63214 5.02671 6 6.55284 6 8.14413C6 15.1441 3 17.1441 3 17.1441H21C21 17.1441 18 15.1441 18 8.14413Z" stroke="black" stroke-width="2" stroke-linecap="round" stroke-linejoin="round"/>
<path d="M13.73 21.1441C13.5542 21.4472 13.3018 21.6988 12.9982 21.8737C12.6946 22.0485 12.3504 22.1406 12 22.1406C11.6496 22.1406 11.3054 22.0485 11.0018 21.8737C10.6981 21.6988 10.4458 21.4472 10.27 21.1441" stroke="black" stroke-width="2" stroke-linecap="round" stroke-linejoin="round"/>
</svg>
