<svg width="24" height="24" viewBox="0 0 24 24" fill="none" xmlns="http://www.w3.org/2000/svg">
<circle cx="12" cy="12" r="11" stroke="black" stroke-width="2"/>
<path d="M16 9.33333C16 8.27246 15.5786 7.25505 14.8284 6.5049C14.0783 5.75476 13.0609 5.33333 12 5.33333C10.9391 5.33333 9.92172 5.75476 9.17157 6.5049C8.42143 7.25505 8 8.27246 8 9.33333C8 14 6 15.3333 6 15.3333H18C18 15.3333 16 14 16 9.33333Z" stroke="black" stroke-width="2" stroke-linecap="round" stroke-linejoin="round"/>
<path d="M13.1533 18C13.0361 18.2021 12.8679 18.3698 12.6655 18.4864C12.4631 18.6029 12.2336 18.6643 12 18.6643C11.7664 18.6643 11.5369 18.6029 11.3345 18.4864C11.1321 18.3698 10.9639 18.2021 10.8467 18" stroke="black" stroke-width="2" stroke-linecap="round" stroke-linejoin="round"/>
</svg>
