<svg width="24" height="25" viewBox="0 0 24 25" fill="none" xmlns="http://www.w3.org/2000/svg">
<path d="M17 21.1441V19.1441C17 18.0833 16.5786 17.0659 15.8284 16.3157C15.0783 15.5656 14.0609 15.1441 13 15.1441H5C3.93913 15.1441 2.92172 15.5656 2.17157 16.3157C1.42143 17.0659 1 18.0833 1 19.1441V21.1441" stroke="black" stroke-width="2" stroke-linecap="round" stroke-linejoin="round"/>
<path d="M9 11.1441C11.2091 11.1441 13 9.35327 13 7.14413C13 4.935 11.2091 3.14413 9 3.14413C6.79086 3.14413 5 4.935 5 7.14413C5 9.35327 6.79086 11.1441 9 11.1441Z" stroke="black" stroke-width="2" stroke-linecap="round" stroke-linejoin="round"/>
<path d="M23 21.1441V19.1441C22.9993 18.2579 22.7044 17.3969 22.1614 16.6965C21.6184 15.996 20.8581 15.4957 20 15.2741" stroke="black" stroke-width="2" stroke-linecap="round" stroke-linejoin="round"/>
<path d="M16 3.27414C16.8604 3.49444 17.623 3.99484 18.1676 4.69645C18.7122 5.39806 19.0078 6.26097 19.0078 7.14914C19.0078 8.03731 18.7122 8.90022 18.1676 9.60183C17.623 10.3034 16.8604 10.8038 16 11.0241" stroke="black" stroke-width="2" stroke-linecap="round" stroke-linejoin="round"/>
</svg>
