<svg width="13" height="17" viewBox="0 0 13 17" fill="none" xmlns="http://www.w3.org/2000/svg">
<g id="pdf icon">
<g id="Group">
<path id="Vector" d="M3.15618 10.737C3.15618 10.4831 2.97998 10.3316 2.66909 10.3316C2.54214 10.3316 2.45616 10.3442 2.41119 10.3561V11.1709C2.46444 11.1829 2.5299 11.1869 2.62012 11.1869C2.9515 11.1869 3.15618 11.0194 3.15618 10.737Z" fill="#51459E"/>
<path id="Vector_2" d="M5.08098 10.34C4.94176 10.34 4.85178 10.352 4.79857 10.3645V12.1689C4.85182 12.1813 4.93779 12.1813 5.01552 12.1813C5.58031 12.1853 5.94867 11.8745 5.94867 11.2157C5.95267 10.6429 5.61701 10.34 5.08098 10.34Z" fill="#51459E"/>
<path id="Vector_3" d="M8.65603 0.899445H2.51475C1.61757 0.899445 0.887359 1.63016 0.887359 2.52684V8.54466H0.72841C0.366302 8.54466 0.0726318 8.83804 0.0726318 9.20047V13.1775C0.0726318 13.5399 0.36627 13.8333 0.72841 13.8333H0.887359V14.5625C0.887359 15.4602 1.61757 16.1899 2.51475 16.1899H10.8943C11.7909 16.1899 12.5212 15.4601 12.5212 14.5625V4.75105L8.65603 0.899445ZM1.79301 9.91818C1.9852 9.88571 2.25533 9.86122 2.63593 9.86122C3.02056 9.86122 3.29469 9.93464 3.47888 10.0821C3.65483 10.2211 3.77357 10.4505 3.77357 10.7204C3.77357 10.9903 3.6836 11.2197 3.51989 11.3752C3.30696 11.5756 2.99208 11.6656 2.62372 11.6656C2.54174 11.6656 2.46826 11.6615 2.41079 11.6536V12.6397H1.79301V9.91818ZM10.8943 15.1933H2.51475C2.16736 15.1933 1.88447 14.9104 1.88447 14.5625V13.8333H9.6959C10.0581 13.8333 10.3517 13.5399 10.3517 13.1775V9.20047C10.3517 8.83804 10.0581 8.54466 9.6959 8.54466H1.88447V2.52684C1.88447 2.17995 2.16739 1.89707 2.51475 1.89707L8.28317 1.89104V4.02325C8.28317 4.64605 8.7885 5.15185 9.41177 5.15185L11.5005 5.14586L11.524 14.5625C11.524 14.9104 11.2416 15.1933 10.8943 15.1933ZM4.17193 12.6272V9.91818C4.40106 9.88171 4.69971 9.86122 5.01488 9.86122C5.53866 9.86122 5.87832 9.95519 6.14446 10.1556C6.43087 10.3685 6.61078 10.7079 6.61078 11.1952C6.61078 11.723 6.41859 12.0874 6.15242 12.3123C5.86202 12.5537 5.41996 12.6682 4.8799 12.6682C4.55649 12.6682 4.32735 12.6477 4.17193 12.6272ZM8.63808 11.0233V11.5306H7.64766V12.6397H7.02163V9.88171H8.70754V10.393H7.64766V11.0233H8.63808Z" fill="#51459E"/>
</g>
</g>
</svg>
